%
M48
M71
T01C0.500
T02C0.600
T03C0.635
T04C0.800
T05C0.813
T06C0.914
T07C1.000
T08C1.100
T09C1.194
T10C1.397
T11C2.000
T12C3.200
%
T01
X8890Y56560
X8890Y65360
T02
X0Y0
X3492Y3492
X27940Y13811
X27940Y17145
X7461Y19050
X10636Y17145
X13811Y19050
X17145Y13811
X19685Y6985
X24765Y6985
X42942Y3334
X72771Y3492
X84773Y22860
X94980Y50006
X72771Y46514
X0Y50006
X3492Y46514
X11430Y46514
X16510Y46514
X21431Y46514
X34131Y46514
X49292Y46514
X44450Y38100
X40005Y33496
X36830Y35878
X36830Y38100
X31750Y35878
X31750Y33496
X28416Y35878
X29210Y38100
X19050Y30162
X19050Y38100
X15240Y35878
X10636Y30162
X94980Y0
T03
X45085Y60960
X42545Y60960
X40005Y60960
T04
X15890Y60960
X15890Y58460
X15890Y63460
T05
X24130Y47625
X26670Y47625
X37465Y47466
X40005Y47466
X44450Y35798
X44450Y33496
X41910Y33496
X41910Y35798
X22384Y32702
X20479Y31432
X21749Y29289
X20479Y33973
X12541Y35560
X10636Y34290
X10636Y36830
X10795Y28099
X13335Y28099
X20955Y5080
X18415Y5080
X16669Y5080
X14129Y5080
X29369Y29289
X59690Y59182
X59690Y62738
X53975Y62230
X53975Y59690
X31432Y60960
X28892Y60960
T06
X19050Y41275
X21590Y41275
X24130Y41275
X26670Y41275
X29210Y41275
X31750Y41275
X34290Y41275
X36830Y41275
X39370Y41275
X41910Y41275
X44450Y41275
X44450Y43815
X41910Y43815
X39370Y43815
X36830Y43815
X34290Y43815
X31750Y43815
X29210Y43815
X26670Y43815
X24130Y43815
X21590Y43815
X19050Y43815
X16510Y43815
X16510Y41275
X13970Y41275
X13970Y43815
X11430Y43815
X11430Y41275
X8890Y41275
X8890Y43815
T07
X5715Y9526
X8255Y9526
X10795Y9526
X13335Y9526
X15875Y9526
X18415Y9526
X20955Y9526
X23495Y9526
X26035Y9526
X28575Y9526
X31115Y9526
X33655Y9526
X33655Y17146
X33655Y19686
X33655Y22226
X33655Y24766
X31115Y24766
X28575Y24766
X26035Y24766
X23495Y24766
X20955Y24766
X18415Y24766
X17145Y22226
X15875Y24766
X13335Y24766
X14605Y22226
X3175Y18416
X3175Y20956
X3175Y23496
X5715Y24766
X8255Y24766
X10795Y24766
X3175Y15876
X3175Y13336
X3175Y10796
T08
X42066Y22812
X42066Y12652
T09
X74311Y23177
X74311Y18098
X74311Y38418
X74311Y33338
T10
X84740Y7620
X84740Y15240
X84740Y30480
X84740Y38100
X84740Y45720
T11
X54766Y26612
X57306Y8853
T12
X72771Y3492
X72771Y46514
X3492Y46514
X3492Y3492
M30
